<svg xmlns="http://www.w3.org/2000/svg" width="512" height="113" viewBox="0 0 512 113"><path class="st0" d="M465.2 35.4l15.7 29.9 13.6-29.9H512l-39.1 77h-17.5l16.5-32.3-24.3-44.7h17.6zM33.3 0c18.4 0 33.3 14.9 33.3 33.3s-30 59.8-33.3 59.8S0 51.6 0 33.3 14.9 0 33.3 0zm170.9 33.8c3.6 0 7 .7 10.2 2.1 3.1 1.4 5.7 3.3 7.7 5.8v-6.2h15.3v51.1h-15.3v-6.7c-2.3 2.7-5 4.8-8 6.2-3 1.4-6.3 2.1-9.8 2.1-4.7 0-9-1.2-12.8-3.5-3.8-2.3-6.9-5.6-9.1-9.7-2.2-4.1-3.4-8.8-3.4-14 0-5.1 1.1-9.7 3.2-13.8s5.1-7.3 9-9.7c3.7-2.5 8.1-3.7 13-3.7zm66.7 0c3.3 0 6.5.5 9.5 1.4 3 .9 5.5 2.1 7.4 3.6l-5.2 10.3c-2.5-1.8-5.6-2.7-9.3-2.7-3.2 0-5.8.7-8 2.1-2.2 1.4-3.9 3.2-5 5.4s-1.7 4.6-1.7 7c0 2.7.6 5.1 1.8 7.4 1.2 2.2 3 4 5.2 5.3 2.2 1.3 4.8 1.9 7.8 1.9 1.8 0 3.5-.2 5.1-.7s2.9-1.2 4-2l5.2 10.3c-1.9 1.4-4.3 2.6-7.3 3.6-3 .9-6.2 1.4-9.5 1.4-3.9 0-7.6-.7-11-2.1-3.4-1.4-6.5-3.3-9.1-5.8-2.6-2.5-4.7-5.4-6.2-8.6-1.5-3.3-2.2-6.8-2.2-10.6 0-3.6.7-7.1 2.1-10.3 1.4-3.3 3.4-6.2 6-8.7s5.6-4.5 9.1-6 7.3-2.2 11.3-2.2zm44.8 0c5.3 0 10 1.1 14 3.3 4 2.2 7.1 5.3 9.4 9.2 2.2 3.9 3.4 8.5 3.4 13.7v1.1c0 .3-.1.9-.2 1.8h-39.2c0 2.6.6 4.9 1.8 6.8 1.2 1.9 2.8 3.4 5 4.5 2.1 1.1 4.6 1.6 7.4 1.6 2.7 0 5-.5 7.1-1.5 2-1 4-2.7 5.9-4.9l11 5.5c-2.4 4.1-5.8 7.4-10.2 9.7-4.4 2.3-9.3 3.5-14.7 3.5-5.5 0-10.5-1.2-14.8-3.6-4.4-2.4-7.8-5.6-10.4-9.7-2.6-4.1-3.8-8.7-3.8-13.9 0-3.8.7-7.3 2.2-10.6 1.4-3.3 3.5-6.2 6.1-8.7 2.6-2.5 5.6-4.4 9-5.8 3.3-1.3 7-2 11-2zm110 0c5.3 0 10 1.1 14 3.3 4 2.2 7.1 5.3 9.4 9.2 2.2 3.9 3.4 8.5 3.4 13.7v1.1c0 .3-.1.9-.2 1.8h-39.2c0 2.6.6 4.9 1.8 6.8s2.8 3.4 5 4.5c2.1 1.1 4.6 1.6 7.4 1.6 2.7 0 5-.5 7.1-1.5 2-1 4-2.7 5.9-4.9l11 5.5c-2.4 4.1-5.8 7.4-10.2 9.7-4.4 2.3-9.3 3.5-14.7 3.5-5.5 0-10.5-1.2-14.8-3.6-4.4-2.4-7.8-5.6-10.4-9.7-2.6-4.1-3.8-8.7-3.8-13.9 0-3.8.7-7.3 2.2-10.6 1.4-3.3 3.5-6.2 6.1-8.7 2.6-2.5 5.6-4.4 9-5.8 3.3-1.3 7-2 11-2zM125.8 4.2c5.4 0 10.1.9 14.3 2.8 4.2 1.9 7.4 4.6 9.8 8.3 2.4 3.7 3.6 8.3 3.6 13.7 0 5.5-1.2 10.1-3.6 14-2.4 3.9-5.7 6.8-9.8 8.9-4.2 2-8.9 3.1-14.3 3.1h-11.9v31.6H97.7V4.2h28.1zm47.4-.9v83.2h-15.3V3.3h15.3zm190.1 0V54l18.9-18.7H402l-25 25 26.1 26h-19.7l-20.2-20.2v20.2H348v-83h15.3zM208.7 46.8c-2.6 0-5 .6-7 1.8-2.1 1.2-3.7 2.9-4.9 5-1.2 2.1-1.8 4.6-1.8 7.3s.6 5.2 1.8 7.3c1.2 2.1 2.8 3.8 4.9 5 2.1 1.2 4.4 1.8 7.1 1.8 2.7 0 5-.6 7.1-1.8 2.1-1.2 3.7-2.9 4.8-5 1.2-2.1 1.7-4.6 1.7-7.3 0-2.8-.6-5.2-1.8-7.3-1.2-2.1-2.8-3.8-4.8-5-2.1-1.2-4.4-1.8-7.1-1.8zM33.3 20C26 20 20 26 20 33.3c0 5.1 2.8 9.4 7 11.7l.6.3-.5 8v.4c0 3.5 2.8 6.3 6.3 6.3h.4c3.3-.2 5.8-2.9 5.9-6.1v-.5l-.5-8c4.5-2.1 7.6-6.7 7.6-12-.2-7.5-6.2-13.4-13.5-13.4zm282.2 24.9c-2.2 0-4.2.4-5.9 1.1-1.7.8-3.1 1.9-4.1 3.3s-1.7 3.1-1.9 5.1h23.8c-.3-2-1-3.7-2.1-5.1-1.1-1.4-2.5-2.5-4.1-3.3s-3.6-1.1-5.7-1.1zm110 0c-2.2 0-4.2.4-5.9 1.1s-3.1 1.9-4.1 3.3-1.7 3.1-1.9 5.1h23.8c-.3-2-1-3.7-2.1-5.1-1.1-1.4-2.5-2.5-4.1-3.3s-3.6-1.1-5.7-1.1zM120.8 17.1h-6.9V42h6.9c2.8 0 5.4-.4 7.8-1.2 2.4-.8 4.3-2.2 5.8-4 1.5-1.8 2.2-4.2 2.2-7.2s-.7-5.4-2.2-7.3c-1.5-1.8-3.4-3.1-5.8-3.9-2.4-.9-5-1.3-7.8-1.3z" fill="#000000"/></svg>